# AST/ASF file generated using VICON BodyLanguage
# -----------------------------------------------
:version 1.10
:name VICON
:units
  mass 1.0
  length 0.45
  angle deg
:documentation
   .ast/.asf automatically generated from VICON data using
   VICON BodyBuilder and BodyLanguage model FoxedUp or BRILLIANT.MOD
:root
   order TX TY TZ RX RY RZ
   axis XYZ
   position 0 0 0  
   orientation 0 0 0 
:bonedata
  begin
     id 1 
     name lhipjoint
     direction 0.677091 -0.635792 0.370561 
     length 2.74323 
     axis 0 0 0  XYZ
  end
  begin
     id 2 
     name lfemur
     direction 0.34202 -0.939693 0  
     length 7.44995  
     axis 0 0 20  XYZ
    dof rx ry rz
    limits (-160.0 20.0)
           (-70.0 70.0)
           (-60.0 70.0)
  end
  begin
     id 3 
     name ltibia
     direction 0.34202 -0.939693 0   
     length 7.34467   
     axis 0 0 20   XYZ
    dof rx
    limits (-10.0 170.0)
  end
  begin
     id 4 
     name lfoot
     direction 0.101953 -0.280114 0.954537   
     length 1.72105   
     axis -90 7.62852e-016 20   XYZ
    dof rx rz
    limits (-45.0 90.0)
           (-70.0 20.0)
  end
  begin
     id 5 
     name ltoes
     direction 1.53537e-011 -4.21915e-011 1   
     length 0.865872   
     axis -90 7.62852e-016 20   XYZ
    dof rx
    limits (-90.0 20.0)
  end
  begin
     id 6 
     name rhipjoint
     direction -0.695735 -0.620586 0.361699   
     length 2.81045  
     axis 0 0 0  XYZ 
  end
  begin
     id 7 
     name rfemur
     direction -0.34202 -0.939693 0   
     length 7.29387   
     axis 0 0 -20   XYZ
    dof rx ry rz
    limits (-160.0 20.0)
           (-70.0 70.0)
           (-70.0 60.0)
  end
  begin
     id 8 
     name rtibia
     direction -0.34202 -0.939693 0   
     length 7.44935   
     axis 0 0 -20   XYZ
    dof rx
    limits (-10.0 170.0)
 end
 begin
     id 9 
     name rfoot
     direction -0.104163 -0.286184 0.952496   
     length 1.77731  
     axis -90 -7.62852e-016 -20   XYZ
    dof rx rz
    limits (-45.0 90.0)
           (-20.0 70.0)
  end
  begin
     id 10 
     name rtoes
     direction -1.5355e-011 -4.21888e-011 1   
     length 0.892424   
     axis -90 -7.62852e-016 -20   XYZ
    dof rx
    limits (-90.0 20.0)
  end
  begin
     id 11 
     name lowerback
     direction 0.0100202 0.997226 -0.0737589   
     length 2.16892   
     axis 0 0 0   XYZ
    dof rx ry rz
    limits (-20.0 45.0)
           (-30.0 30.0)
           (-30.0 30.0)
  end
  begin
     id 12 
     name upperback
     direction 0.00432398 0.999988 -0.00215019   
     length 2.17326   
     axis 0 0 0   XYZ
    dof rx ry rz
    limits (-20.0 45.0)
           (-30.0 30.0)
           (-30.0 30.0)
  end
  begin
     id 13 
     name thorax
     direction -0.00195047 0.999485 0.0320434   
     length 2.18139   
     axis 0 0 0   XYZ
    dof rx ry rz
    limits (-20.0 45.0)
           (-30.0 30.0)
           (-30.0 30.0)
  end
  begin
     id 14 
     name lowerneck
     direction 0.00782762 0.986241 0.165128   
     length 1.88415   
     axis 0 0 0   XYZ
    dof rx ry rz
    limits (-20.0 45.0)
           (-30.0 30.0)
           (-30.0 30.0)
  end
  begin
     id 15 
     name upperneck
     direction 0.00988667 0.981098 -0.193258   
     length 1.9242   
     axis 0 0 0   XYZ
    dof rx ry rz
    limits (-20.0 45.0)
           (-30.0 30.0)
           (-30.0 30.0)
  end
  begin
     id 16
     name head
     direction 0.00252199 0.996513 -0.0833958  
     length 1.93887  
     axis 0 0 0   XYZ
    dof rx ry rz
    limits (-20.0 45.0)
           (-30.0 30.0)
           (-30.0 30.0)
  end
  begin
     id 17 
     name lclavicle
     direction 0.929492 0.368193 -0.0218667  
     length 3.5955  
     axis 0 0 0   XYZ
    dof ry rz
    limits (-20.0 10.0)
           (0.0 20.0)
  end
  begin
     id 18 
     name lhumerus
     direction 1 -4.48972e-011 1.41911e-027   
     length 5.2795   
     axis 180 -30 -90   XYZ
    dof rx ry rz
    limits (-60.0 90.0)
           (-90.0 90.0)
           (-90.0 90.0)
  end
  begin
     id 19
     name lradius
     direction 1 -4.48963e-011 7.05772e-027   
     length 3.53504   
     axis 180 -30 -90   XYZ
    dof rx
    limits (-10.0 170.0)
  end
  begin
     id 20
     name lwrist
     direction 1 -4.48957e-011 9.54866e-027   
     length 1.76752   
     axis -7.69462e-015 90 90   XYZ
    dof ry
    limits (-180.0 0.0)
 end
  begin
     id 21 
     name lhand
     direction 1 -4.48979e-011 1.90973e-026   
     length 0.667948   
     axis -1.21857e-014 90 90   XYZ
    dof rx rz
    limits (-90.0 90.0)
           (-45.0 45.0)
  end
  begin
     id 22 
     name lfingers
     direction 1 -4.48987e-011 3.81946e-026   
     length 0.538517   
     axis -2.43714e-014 90 90   XYZ
    dof rx
    limits (0.0 90.0)
  end
  begin
     id 23
     name lthumb
     direction 0.707107 -6.34962e-011 0.707107   
     length 0.773206   
     axis -90 45 2.85299e-015   XYZ
    dof rx rz
    limits (-45.0 45.0)
           (-45.0 45.0)
  end
  begin
     id 24 
     name rclavicle
     direction -0.898763 0.414256 -0.143584   
     length 3.5176  
     axis 0 0 0   XYZ 
    dof ry rz
    limits (-10.0 20.0)
           (-20.0 0.0)
  end
  begin
     id 25 
     name rhumerus
     direction -1 -4.48971e-011 1.129e-027  
     length 5.25035   
     axis 180 30 90   XYZ
    dof rx ry rz
    limits (-90.0 60.0)
           (-90.0 90.0)
           (-90.0 90.0)
  end
  begin
     id 26 
     name rradius
     direction -1 -4.48955e-011 6.34664e-027   
     length 3.58884   
     axis 180 30 90   XYZ
    dof rx
    limits (-10.0 170.0)
  end
  begin
     id 27 
     name rwrist
     direction -1 -4.48966e-011 9.54866e-027   
     length 1.79442   
     axis -7.69462e-015 -90 -90   XYZ
    dof ry
    limits (-180.0 0.0)
  end
  begin
     id 28
     name rhand
     direction -1 -4.48973e-011 1.90973e-026   
     length 0.779235   
     axis -1.21857e-014 -90 -90   XYZ
    dof rx rz
    limits (-90.0 90.0)
           (-45.0 45.0)
  end
  begin
     id 29
     name rfingers
     direction -1 -4.48984e-011 3.81946e-026   
     length 0.62824   
     axis -2.43714e-014 -90 -90   XYZ
    dof rx
    limits (0.0 90.0)
  end
  begin
     id 30
     name rthumb
     direction -0.707107 -6.34968e-011 0.707107   
     length 0.90203   
     axis -90 -45 -2.85299e-015   XYZ
    dof rx rz
    limits (-45.0 45.0)
           (-45.0 45.0)
  end
:hierarchy
  begin
    root lhipjoint rhipjoint lowerback
    lhipjoint lfemur
    lfemur ltibia
    ltibia lfoot
    lfoot ltoes
    rhipjoint rfemur
    rfemur rtibia
    rtibia rfoot
    rfoot rtoes
    lowerback upperback
    upperback thorax
    thorax lowerneck lclavicle rclavicle
    lowerneck upperneck
    upperneck head
    lclavicle lhumerus
    lhumerus lradius
    lradius lwrist
    lwrist lhand lthumb
    lhand lfingers
    rclavicle rhumerus
    rhumerus rradius
    rradius rwrist
    rwrist rhand rthumb
    rhand rfingers
  end

#!OML:ASF I:\Random Stuff\random\construction\7_22_03\Session 2\subj1.ASF
:FULLY-SPECIFIED
:DEGREES
105
root -19.2869 17.5437 -2.41435 -141.657 80.5311 -149.063
lowerback 2.85673 1.87984 -0.692954
upperback -2.24694 2.51247 0.585984
thorax -3.97135 1.28342 0.833043
lowerneck -22.3654 -3.11704 -3.24311
upperneck 34.7515 -4.34545 5.00045
head 16.4605 -1.14532 1.97386
rclavicle -2.73329e-014 -3.97569e-016
rhumerus -34.5847 0.568856 -84.025
rradius 27.2851
rwrist 3.41241
rhand -19.2664 20.323
rfingers 7.12502
rthumb 7.04803 -9.53961
lclavicle -2.73329e-014 -3.97569e-016
lhumerus -34.1015 -5.82398 89.3529
lradius 33.3259
lwrist 24.4557
lhand -20.6787 54.1337
lfingers 7.12502
lthumb 5.68459 84.0374
rfemur -0.925593 8.46349 22.1106
rtibia 6.03585
rfoot -9.14686 -22.2169
rtoes -13.4831
lfemur -18.9191 -7.68477 -15.4057
ltibia 30.6181
lfoot -20.7011 3.75543
ltoes -18.6124
106
root -19.2495 17.5414 -2.45983 -142.487 80.4436 -149.865
lowerback 3.04086 1.9519 -0.942079
upperback -2.22093 2.59099 0.494167
thorax -4.0574 1.32738 0.866437
lowerneck -22.2084 -3.34994 -3.46463
upperneck 34.8512 -4.70162 5.27674
head 16.5148 -1.27475 2.06754
rclavicle 1.70955e-014 2.38542e-015
rhumerus -34.7381 0.594569 -84.0691
rradius 27.6466
rwrist 3.50132
rhand -19.2911 20.1981
rfingers 7.12502
rthumb 7.02419 -9.6654
lclavicle 1.70955e-014 2.38542e-015
lhumerus -34.0972 -5.80142 89.1049
lradius 33.1413
lwrist 24.5057
lhand -21.0885 54.3785
lfingers 7.12502
lthumb 5.28894 84.2925
rfemur -1.71062 7.21981 21.8252
rtibia 7.76717
rfoot -9.59576 -21.4441
rtoes -15.1853
lfemur -18.5903 -7.58985 -15.6465
ltibia 30.3909
lfoot -20.8976 3.18088
ltoes -16.0587
107
root -19.2131 17.5432 -2.508 -142.961 80.4171 -150.276
lowerback 3.25413 2.00644 -1.15314
upperback -2.16505 2.64721 0.425146
thorax -4.12817 1.35929 0.902693
lowerneck -22.2081 -3.56772 -3.5469
upperneck 35.0639 -5.00974 5.32871
head 16.6499 -1.39569 2.04992
rclavicle -4.9895e-014 7.95139e-015
rhumerus -34.7766 0.788969 -84.2014
rradius 27.9044
rwrist 3.76429
rhand -19.8577 20.4058
rfingers 7.12502
rthumb 6.47717 -9.47513
lclavicle -4.9895e-014 7.95139e-015
lhumerus -34.0675 -5.64636 88.8076
lradius 32.8906
lwrist 24.2745
lhand -21.272 54.6256
lfingers 7.12502
lthumb 5.11171 84.544
rfemur -2.76082 6.04847 21.5121
rtibia 9.96973
rfoot -10.4296 -20.7798
rtoes -15.5237
lfemur -18.1803 -7.41159 -15.8785
ltibia 30.085
lfoot -20.2564 3.01911
ltoes -20.4594
108
root -19.1764 17.557 -2.55785 -142.776 80.3966 -150.045
lowerback 3.42324 2.07775 -1.22652
upperback -2.08794 2.73286 0.361189
thorax -4.14658 1.40178 0.867029
lowerneck -22.1537 -3.77013 -3.63936
upperneck 35.194 -5.29403 5.38436
head 16.7295 -1.51102 2.0375
rclavicle -3.13583e-014 7.95139e-015
rhumerus -34.7995 0.946226 -84.3636
rradius 28.2778
rwrist 3.91204
rhand -20.352 20.5405
rfingers 7.12502
rthumb 5.99999 -9.35451
lclavicle -3.13583e-014 7.95139e-015
lhumerus -34.0913 -5.65471 88.4781
lradius 32.7414
lwrist 24.1743
lhand -21.2532 54.6901
lfingers 7.12502
lthumb 5.12983 84.608
rfemur -4.19944 4.92759 21.2496
rtibia 12.8202
rfoot -11.0575 -20.1039
rtoes -16.4997
lfemur -17.7651 -7.34573 -16.0215
ltibia 29.6046
lfoot -20.15 2.86417
ltoes -20.1081
109
root -19.1401 17.5815 -2.60549 -142.842 80.506 -150.049
lowerback 3.6118 2.18178 -1.41023
upperback -1.97805 2.85431 0.266248
thorax -4.14692 1.46421 0.858034
lowerneck -22.106 -3.91252 -3.76365
upperneck 35.292 -5.49647 5.49872
head 16.7935 -1.58936 2.07281
rclavicle -1.71949e-014 -9.54166e-015
rhumerus -34.792 0.879681 -84.4276
rradius 28.7454
rwrist 4.16932
rhand -20.7695 20.5513
rfingers 7.12502
rthumb 5.59685 -9.35483
lclavicle -1.71949e-014 -9.54166e-015
lhumerus -34.1553 -5.89993 88.1996
lradius 32.7425
lwrist 24.3258
lhand -21.3562 55.0052
lfingers 7.12502
lthumb 5.03037 84.9255
rfemur -5.80064 3.18956 20.9435
rtibia 16.0749
rfoot -11.1371 -18.7007
rtoes -19.2704
lfemur -17.2461 -7.26751 -16.2856
ltibia 28.9623
lfoot -20.6031 2.65036
ltoes -15.4088
110
root -19.1062 17.6062 -2.6529 -143.929 80.7572 -151.037
lowerback 3.87076 2.26321 -1.79539
upperback -1.84685 2.93026 0.111998
thorax -4.17135 1.50841 0.900818
lowerneck -22.0301 -3.96206 -3.81371
upperneck 35.3744 -5.58568 5.60745
head 16.8318 -1.61265 2.11611
rclavicle -2.09221e-014 -1.19271e-014
rhumerus -34.6662 0.87119 -84.4912
rradius 29.2614
rwrist 4.02451
rhand -20.7681 20.492
rfingers 7.12502
rthumb 5.59822 -9.41404
lclavicle -2.09221e-014 -1.19271e-014
lhumerus -34.1436 -5.95848 87.825
lradius 32.5683
lwrist 24.333
lhand -21.4268 55.0323
lfingers 7.12502
lthumb 4.9623 84.9542
rfemur -7.47019 1.71976 20.4382
rtibia 19.5652
rfoot -11.0278 -17.535
rtoes -21.6452
lfemur -16.572 -7.22222 -16.7938
ltibia 28.1959
lfoot -20.3929 2.74432
ltoes -15.3078
111
root -19.0749 17.6236 -2.70147 -145.149 80.954 -152.104
lowerback 4.19907 2.30858 -2.12003
upperback -1.70119 2.95884 -0.0357771
thorax -4.21607 1.52746 0.917178
lowerneck -21.886 -3.99617 -3.82799
upperneck 35.3885 -5.66126 5.69928
head 16.8148 -1.63129 2.14622
rclavicle 7.99114e-014 -1.59028e-015
rhumerus -34.4935 0.90953 -84.585
rradius 29.9227
rwrist 3.39577
rhand -20.2222 20.267
rfingers 7.12502
rthumb 6.12525 -9.62443
lclavicle 7.99114e-014 -1.59028e-015
lhumerus -33.9956 -5.56245 87.2766
lradius 32.1213
lwrist 23.9618
lhand -21.2134 54.5758
lfingers 7.12502
lthumb 5.16829 84.4928
rfemur -9.23496 0.506634 19.9747
rtibia 23.2613
rfoot -10.798 -16.6038
rtoes -22.0972
lfemur -15.7612 -7.86542 -17.2585
ltibia 27.3383
lfoot -19.3744 3.68415
ltoes -21.0376
112
root -19.0424 17.6385 -2.74572 -145.555 81.0849 -152.279
lowerback 4.57413 2.35986 -2.32792
upperback -1.5076 3.00244 -0.115488
thorax -4.23553 1.55112 0.936268
lowerneck -21.8284 -4.08655 -3.87864
upperneck 35.4315 -5.80171 5.7694
head 16.8394 -1.68392 2.15955
rclavicle -2.39536e-014 -1.66979e-014
rhumerus -34.3407 0.755283 -84.6035
rradius 30.6923
rwrist 2.86184
rhand -19.7284 20.024
rfingers 7.12502
rthumb 6.602 -9.85312
lclavicle -2.39536e-014 -1.66979e-014
lhumerus -33.7732 -4.98149 86.7089
lradius 31.6469
lwrist 23.6765
lhand -21.3448 54.3708
lfingers 7.12502
lthumb 5.04146 84.2908
rfemur -11.0131 -0.429219 19.7048
rtibia 27.0344
rfoot -10.2602 -15.7121
rtoes -21.4562
lfemur -14.8205 -8.91683 -17.5408
ltibia 26.4235
lfoot -19.0535 4.7822
ltoes -21.0136
113
root -19.0075 17.6504 -2.78541 -145.423 81.2011 -151.892
lowerback 4.92723 2.39082 -2.51785
upperback -1.28656 3.02238 -0.137417
thorax -4.21534 1.56282 1.00839
lowerneck -21.8086 -4.1583 -3.90646
upperneck 35.4988 -5.90072 5.77781
head 16.8789 -1.7253 2.15013
rclavicle 6.65929e-015 9.54166e-015
rhumerus -34.217 0.833249 -84.6796
rradius 31.4544
rwrist 2.54577
rhand -19.7226 19.8482
rfingers 7.12502
rthumb 6.60762 -10.0287
lclavicle 6.65929e-015 9.54166e-015
lhumerus -33.6516 -4.49301 86.2004
lradius 31.3477
lwrist 23.7105
lhand -21.7858 54.564
lfingers 7.12502
lthumb 4.61562 84.4937
rfemur -12.7642 -1.1625 19.5495
rtibia 30.7332
rfoot -9.38992 -14.7372
rtoes -20.656
lfemur -13.9076 -9.09152 -17.7568
ltibia 25.5442
lfoot -19.5679 4.84573
ltoes -15.1933
114
root -18.9689 17.6646 -2.82361 -145.41 81.3161 -151.66
lowerback 5.20951 2.39593 -2.75514
upperback -1.08436 3.00654 -0.154287
thorax -4.17597 1.55808 1.11791
lowerneck -21.7384 -4.16053 -3.89396
upperneck 35.5922 -5.9099 5.79271
head 16.9116 -1.72223 2.15716
rclavicle -2.55438e-014 -1.59028e-015
rhumerus -34.0384 1.10002 -84.7905
rradius 32.2069
rwrist 2.29176
rhand -19.7914 19.7151
rfingers 7.12502
rthumb 6.54123 -10.1639
lclavicle -2.55438e-014 -1.59028e-015
lhumerus -33.5992 -3.9832 85.6589
lradius 31.0133
lwrist 23.4283
lhand -21.932 54.9015
lfingers 7.12502
lthumb 4.47441 84.8343
rfemur -14.514 -1.75849 19.3934
rtibia 34.2397
rfoot -8.22458 -13.6618
rtoes -18.454
lfemur -13.1177 -8.54673 -17.9843
ltibia 24.7572
lfoot -18.8534 4.51718
ltoes -18.3164
